PathFileType	4	(X/Y/Z)	output.trc
DataRate	CameraRate	NumFrames	NumMarkers	Units	OrigDataRate	OrigDataStartFrame	OrigNumFrames
128	128	7	47	mm	128	1	2911
Frame#	Time	C7			LSHO			RSHO			CLAV			T10			LUPA			RELB			LELB			LFRA			RFRA			RWRB			RWRA			RFIN			LWRB			LWRA			LFIN			RASI			LASI			RPSI			LPSI			RANK			LANK			LMMA			LHEE			LTOE			RMMA			RHEE			RTOE			RMT5			LMT5			RKNE			LKNE			LMFC			RMFC			RFM2			LFM2			RTP2			RTP3			RTA3			LTP2			LTP3			LTA3			LBHD			RBHD			RFHD			RGTR			LGTR			
		X1	Y1	Z1	X2	Y2	Z2	X3	Y3	Z3	X4	Y4	Z4	X5	Y5	Z5	X6	Y6	Z6	X7	Y7	Z7	X8	Y8	Z8	X9	Y9	Z9	X10	Y10	Z10	X11	Y11	Z11	X12	Y12	Z12	X13	Y13	Z13	X14	Y14	Z14	X15	Y15	Z15	X16	Y16	Z16	X17	Y17	Z17	X18	Y18	Z18	X19	Y19	Z19	X20	Y20	Z20	X21	Y21	Z21	X22	Y22	Z22	X23	Y23	Z23	X24	Y24	Z24	X25	Y25	Z25	X26	Y26	Z26	X27	Y27	Z27	X28	Y28	Z28	X29	Y29	Z29	X30	Y30	Z30	X31	Y31	Z31	X32	Y32	Z32	X33	Y33	Z33	X34	Y34	Z34	X35	Y35	Z35	X36	Y36	Z36	X37	Y37	Z37	X38	Y38	Z38	X39	Y39	Z39	X40	Y40	Z40	X41	Y41	Z41	X42	Y42	Z42	X43	Y43	Z43	X44	Y44	Z44	X45	Y45	Z45	X46	Y46	Z46	X47	Y47	Z47	
1	0.00000	1565.64667	1533.07145	1562.65382	1509.33351	1258.31749	1473.47251	1148.52467	1160.29733	1030.40809	1040.17416	893.69031	912.85200	816.69508	893.53820	916.20174	818.08650	1087.90003	1058.61930	1147.12048	1144.01336	72.26494	70.00450	72.89480	41.90139	31.53158	68.25001	43.21448	36.50111	24.73151	27.22151	505.09174	517.61665	531.56428	524.08191	667.34675	668.79287	314.03161	372.58530	337.77862	304.57416	338.46211	336.19181	1453.79064	1853.79064	1483.79064	1453.79064	1853.79064	1623.79064	1653.79064	1853.79064	1623.79064	893.69031	893.53820	
2	0.00781	1565.67835	1533.04733	1562.64000	1509.34781	1258.33960	1473.38883	1148.50792	1160.31923	1030.44214	1040.21138	893.69815	912.84428	816.69591	893.51628	916.22283	818.23377	1087.95848	1058.49222	1147.15065	1144.00749	72.33989	69.92239	72.98064	41.93930	31.50738	68.21610	43.22608	36.52539	24.72760	27.22530	505.07559	517.66844	531.67465	524.07272	667.38487	668.82102	314.03889	372.48983	337.78052	303.57765	338.41032	337.59328	1453.78856	1853.78856	1483.78856	1453.78856	1853.78856	1623.78856	1653.78856	1853.78856	1623.78856	893.69815	893.51628	
3	0.01562	1565.64670	1533.08482	1562.65432	1509.32526	1258.36159	1473.40254	1148.57433	1160.26939	1030.46989	1040.19850	893.65320	912.91912	816.70199	893.58251	916.27112	818.16413	1087.95525	1058.53385	1147.18089	1144.03771	72.26768	69.95043	72.74807	41.97017	31.55055	68.22678	43.23082	36.46771	24.70092	27.24810	505.09743	517.62895	531.67013	524.04698	667.34944	668.77031	314.05625	372.56832	337.62684	303.57645	338.46361	337.61470	1453.79528	1853.79528	1483.79528	1453.79528	1853.79528	1623.79528	1653.79528	1853.79528	1623.79528	893.65320	893.58251	
4	0.02344	1565.55364	1533.26429	1562.63288	1509.74330	1257.27244	1474.21775	1148.57370	1160.22882	1030.50085	1040.21459	893.57244	912.62771	816.20483	893.55757	915.87272	818.04335	1087.96318	1058.53028	1147.07638	1144.01202	72.23849	69.97824	72.72695	42.14922	31.98738	68.26437	44.79073	36.47092	24.69112	27.25107	505.06321	517.75223	531.56993	524.07010	666.80956	668.74459	314.38610	372.21072	337.92620	303.48979	337.99482	335.96534	1453.81694	1853.81694	1483.81694	1453.81694	1853.81694	1623.81694	1653.81694	1853.81694	1623.81694	893.57244	893.55757	
5	0.03125	1565.68156	1541.71053	1562.62576	1509.85798	1257.37568	1474.22774	1148.57491	1160.19837	1030.73580	1040.19370	893.53083	912.58420	816.18300	893.66379	916.29856	817.90164	1087.99323	1058.66850	1147.06601	1144.04117	72.27893	69.91113	72.70620	42.24606	32.17362	68.25623	45.57541	36.27545	24.75810	27.29151	505.40416	517.58646	531.88586	524.03134	666.50674	668.69449	314.90604	372.60882	337.91921	303.73314	337.76054	337.71644	1456.67262	1856.67262	1486.67262	1456.67262	1856.67262	1626.67262	1656.67262	1856.67262	1626.67262	893.53083	893.66379	
6	0.03906	1565.56074	1541.82799	1562.63393	1509.88214	1257.40049	1474.27212	1148.60572	1160.17889	1030.54583	1040.17232	893.51774	912.51390	816.15890	893.60339	916.13351	818.34017	1087.89839	1058.64199	1147.09773	1144.10660	72.22247	69.95594	72.63981	42.27520	32.16610	68.26333	45.74935	36.15773	24.75051	27.33854	505.13415	517.56753	531.80189	524.02395	666.39285	668.72728	315.49366	372.44690	336.65983	303.78944	337.98635	337.74877	1456.67422	1856.67422	1486.67422	1456.67422	1856.67422	1626.67422	1656.67422	1856.67422	1626.67422	893.51774	893.60339	
7	0.04688	1565.55711	1541.97239	1562.67483	1509.87920	1257.44229	1474.28095	1148.61438	1160.17121	1030.51032	1040.14577	893.52260	912.42162	816.07515	893.61745	916.08096	818.25406	1087.83574	1058.62318	1147.10438	1144.09235	72.28310	70.17648	72.81423	42.25115	32.02163	68.31340	45.47704	36.15755	24.72053	27.37526	505.06651	517.54174	531.65857	524.00431	666.41973	668.72162	316.02655	372.39634	337.70532	303.63513	337.91310	337.75934	1456.73478	1856.73478	1486.73478	1456.73478	1856.73478	1626.73478	1656.73478	1856.73478	1626.73478	893.52260	893.61745	
